<svg width="205" height="38" viewBox="0 0 205 38" fill="none" xmlns="http://www.w3.org/2000/svg">
<g filter="url(#filter0_dd_13001_655)">
<rect x="3.1" y="2.1" width="31.8" height="31.8" rx="7.9" fill="white"/>
<rect x="3.1" y="2.1" width="31.8" height="31.8" rx="7.9" fill="url(#paint0_linear_13001_655)"/>
<rect x="3.1" y="2.1" width="31.8" height="31.8" rx="7.9" stroke="#D0D5DD" stroke-width="0.2"/>
<path d="M18.3546 13.1828C22.7105 11.4504 27.4742 12.8185 29.6373 14.9133C30.106 15.3671 30.5041 15.8275 30.845 16.2852C31.0394 15.2107 31.0552 14.1405 30.8681 13.1055C30.1847 9.32649 26.6195 7.18561 23.4233 8.29149C20.2415 9.3924 19.0005 11.5321 19.0005 11.5321C19.0005 11.5321 17.7595 9.3924 14.5777 8.29149C11.3812 7.18561 7.81603 9.32672 7.1328 13.1055C6.62842 15.8944 7.58356 18.9392 9.61033 21.6298C10.0372 21.7732 10.4847 21.8809 10.9586 21.9431C13.7978 22.3163 14.8184 21.557 16.0178 21.0486C16.8142 20.7113 17.4134 21.0942 17.3843 21.3626C17.3392 21.7786 15.7693 22.4895 16.106 22.6388C17.4351 23.2285 19.0718 23.2334 20.3053 22.18C21.838 20.8712 22.4114 21.7659 22.4114 21.7659C22.4114 21.7659 21.6502 23.7076 19.3581 24.6717C17.4457 25.4761 15.4419 25.6743 13.6107 25.4683C15.19 26.5846 17.0035 27.5204 19.0005 28.1883C24.7099 26.2784 28.9276 22.1871 30.4145 17.9096C29.4072 16.9157 28.1716 16.2996 26.6988 16.0763C23.8674 15.6471 22.8322 16.3863 21.6228 16.8708C20.8198 17.1926 20.2285 16.7978 20.263 16.5299C20.3161 16.1148 21.8999 15.4351 21.5661 15.279C20.249 14.6633 18.6125 14.626 17.3585 15.6549C15.8003 16.9332 15.2446 16.0274 15.2446 16.0274C15.2446 16.0274 16.0438 14.1015 18.3546 13.1828ZM17.2709 18.5052H18.3709V17.4052H19.6296V18.5052H20.7296V19.7639H19.6296V20.8639H18.3709V19.7639H17.2709V18.5052Z" fill="url(#paint1_linear_13001_655)"/>
<path d="M17.2709 18.5052H18.3709V17.4052H19.6296V18.5052H20.7295V19.7639H19.6378C21.2597 20.5834 24.2383 21.8027 27.8177 22.3451C28.9956 20.9517 29.8813 19.4428 30.4143 17.9096C29.4069 16.9157 28.1713 16.2996 26.6986 16.0763C23.8672 15.647 22.8319 16.3863 21.6226 16.8708C20.8196 17.1926 20.2282 16.7978 20.2627 16.5299C20.3159 16.1148 21.8997 15.4351 21.5659 15.279C20.2488 14.6633 18.6123 14.626 17.3583 15.6548C15.8 16.9332 15.2443 16.0274 15.2443 16.0274C15.2443 16.0274 16.0438 14.1013 18.3543 13.1823C22.7102 11.4499 27.4739 12.818 29.637 14.9128C30.1057 15.3666 30.5038 15.8271 30.8447 16.2847C31.0392 15.2102 31.055 14.14 30.8679 13.105C30.1844 9.326 26.6192 7.18512 23.423 8.291C20.2412 9.39191 19.0002 11.5316 19.0002 11.5316C19.0002 11.5316 17.7592 9.39191 14.5774 8.291C12.7519 7.65927 10.8067 8.0883 9.34619 9.27521C10.0323 10.7442 10.836 12.1168 13.1254 14.8773C14.9868 17.1222 17.2709 18.5052 17.2709 18.5052Z" fill="url(#paint2_linear_13001_655)"/>
<path opacity="0.31" d="M27.277 9.64954C24.2712 8.13944 21.169 10.4892 20.1851 11.7299C21.882 11.3725 23.3668 11.1892 25.2457 11.5839C28.0252 12.1679 29.0654 13.1715 30.3064 14.6542C30.0871 11.9069 28.3519 10.1896 27.277 9.64954Z" fill="url(#paint3_linear_13001_655)"/>
</g>
<path d="M46.728 28V10.12H49.848L56.544 19.216H55.056L61.608 10.12H64.728V28H61.44V13.84L62.712 14.152L55.92 23.2H55.536L48.912 14.152L49.992 13.84V28H46.728ZM74.0779 28.288C72.7339 28.288 71.5579 27.984 70.5499 27.376C69.5419 26.768 68.7579 25.944 68.1979 24.904C67.6379 23.864 67.3579 22.712 67.3579 21.448C67.3579 20.136 67.6379 18.976 68.1979 17.968C68.7739 16.944 69.5499 16.136 70.5259 15.544C71.5179 14.952 72.6219 14.656 73.8379 14.656C74.8619 14.656 75.7579 14.824 76.5259 15.16C77.3099 15.496 77.9739 15.96 78.5179 16.552C79.0619 17.144 79.4779 17.824 79.7659 18.592C80.0539 19.344 80.1979 20.16 80.1979 21.04C80.1979 21.264 80.1819 21.496 80.1499 21.736C80.1339 21.976 80.0939 22.184 80.0299 22.36H69.9499V19.96H78.2539L76.7659 21.088C76.9099 20.352 76.8699 19.696 76.6459 19.12C76.4379 18.544 76.0859 18.088 75.5899 17.752C75.1099 17.416 74.5259 17.248 73.8379 17.248C73.1819 17.248 72.5979 17.416 72.0859 17.752C71.5739 18.072 71.1819 18.552 70.9099 19.192C70.6539 19.816 70.5579 20.576 70.6219 21.472C70.5579 22.272 70.6619 22.984 70.9339 23.608C71.2219 24.216 71.6379 24.688 72.1819 25.024C72.7419 25.36 73.3819 25.528 74.1019 25.528C74.8219 25.528 75.4299 25.376 75.9259 25.072C76.4379 24.768 76.8379 24.36 77.1259 23.848L79.6699 25.096C79.4139 25.72 79.0139 26.272 78.4699 26.752C77.9259 27.232 77.2779 27.608 76.5259 27.88C75.7899 28.152 74.9739 28.288 74.0779 28.288ZM88.6532 28.288C87.3892 28.288 86.2612 27.992 85.2692 27.4C84.2772 26.792 83.4932 25.968 82.9172 24.928C82.3412 23.888 82.0532 22.736 82.0532 21.472C82.0532 20.192 82.3412 19.04 82.9172 18.016C83.4932 16.992 84.2772 16.176 85.2692 15.568C86.2772 14.96 87.3972 14.656 88.6292 14.656C89.6212 14.656 90.5012 14.856 91.2692 15.256C92.0532 15.64 92.6692 16.184 93.1172 16.888L92.6372 17.536V9.832H95.7812V28H92.8052V25.48L93.1412 26.104C92.6932 26.808 92.0692 27.352 91.2692 27.736C90.4692 28.104 89.5972 28.288 88.6532 28.288ZM88.9892 25.408C89.7092 25.408 90.3412 25.24 90.8852 24.904C91.4292 24.568 91.8532 24.104 92.1572 23.512C92.4772 22.92 92.6372 22.24 92.6372 21.472C92.6372 20.72 92.4772 20.048 92.1572 19.456C91.8532 18.848 91.4292 18.376 90.8852 18.04C90.3412 17.704 89.7092 17.536 88.9892 17.536C88.2852 17.536 87.6532 17.712 87.0932 18.064C86.5332 18.4 86.0932 18.864 85.7732 19.456C85.4692 20.032 85.3172 20.704 85.3172 21.472C85.3172 22.24 85.4692 22.92 85.7732 23.512C86.0932 24.104 86.5332 24.568 87.0932 24.904C87.6532 25.24 88.2852 25.408 88.9892 25.408ZM98.7062 28V14.944H101.85V28H98.7062ZM98.7062 13.48V10.12H101.85V13.48H98.7062ZM113.417 28.288C112.137 28.288 110.953 28.056 109.865 27.592C108.793 27.128 107.849 26.48 107.033 25.648C106.233 24.816 105.609 23.84 105.161 22.72C104.713 21.6 104.489 20.376 104.489 19.048C104.489 17.72 104.705 16.496 105.137 15.376C105.585 14.24 106.209 13.264 107.009 12.448C107.825 11.616 108.777 10.976 109.865 10.528C110.953 10.064 112.137 9.832 113.417 9.832C114.697 9.832 115.841 10.048 116.849 10.48C117.873 10.912 118.737 11.488 119.441 12.208C120.145 12.912 120.649 13.688 120.953 14.536L118.025 15.904C117.689 15.008 117.121 14.272 116.321 13.696C115.521 13.104 114.553 12.808 113.417 12.808C112.297 12.808 111.305 13.072 110.441 13.6C109.593 14.128 108.929 14.856 108.449 15.784C107.985 16.712 107.753 17.8 107.753 19.048C107.753 20.296 107.985 21.392 108.449 22.336C108.929 23.264 109.593 23.992 110.441 24.52C111.305 25.048 112.297 25.312 113.417 25.312C114.553 25.312 115.521 25.024 116.321 24.448C117.121 23.856 117.689 23.112 118.025 22.216L120.953 23.584C120.649 24.432 120.145 25.216 119.441 25.936C118.737 26.64 117.873 27.208 116.849 27.64C115.841 28.072 114.697 28.288 113.417 28.288ZM129.489 28.288C128.209 28.288 127.041 27.992 125.985 27.4C124.945 26.808 124.113 26 123.489 24.976C122.881 23.952 122.577 22.784 122.577 21.472C122.577 20.16 122.881 18.992 123.489 17.968C124.113 16.944 124.945 16.136 125.985 15.544C127.025 14.952 128.193 14.656 129.489 14.656C130.769 14.656 131.929 14.952 132.969 15.544C134.009 16.136 134.833 16.944 135.441 17.968C136.065 18.976 136.377 20.144 136.377 21.472C136.377 22.784 136.065 23.952 135.441 24.976C134.817 26 133.985 26.808 132.945 27.4C131.905 27.992 130.753 28.288 129.489 28.288ZM129.489 25.408C130.193 25.408 130.809 25.24 131.337 24.904C131.881 24.568 132.305 24.104 132.609 23.512C132.929 22.904 133.089 22.224 133.089 21.472C133.089 20.704 132.929 20.032 132.609 19.456C132.305 18.864 131.881 18.4 131.337 18.064C130.809 17.712 130.193 17.536 129.489 17.536C128.769 17.536 128.137 17.712 127.593 18.064C127.049 18.4 126.617 18.864 126.297 19.456C125.993 20.032 125.841 20.704 125.841 21.472C125.841 22.224 125.993 22.904 126.297 23.512C126.617 24.104 127.049 24.568 127.593 24.904C128.137 25.24 128.769 25.408 129.489 25.408ZM138.761 28V14.944H141.713V17.512L141.473 17.056C141.777 16.272 142.273 15.68 142.961 15.28C143.665 14.864 144.481 14.656 145.409 14.656C146.369 14.656 147.217 14.864 147.953 15.28C148.705 15.696 149.289 16.28 149.705 17.032C150.121 17.768 150.329 18.624 150.329 19.6V28H147.185V20.344C147.185 19.768 147.073 19.272 146.849 18.856C146.625 18.44 146.313 18.12 145.913 17.896C145.529 17.656 145.073 17.536 144.545 17.536C144.033 17.536 143.577 17.656 143.177 17.896C142.777 18.12 142.465 18.44 142.241 18.856C142.017 19.272 141.905 19.768 141.905 20.344V28H138.761ZM152.987 28V14.944H155.939V17.512L155.699 17.056C156.003 16.272 156.499 15.68 157.187 15.28C157.891 14.864 158.707 14.656 159.635 14.656C160.595 14.656 161.443 14.864 162.179 15.28C162.931 15.696 163.515 16.28 163.931 17.032C164.347 17.768 164.555 18.624 164.555 19.6V28H161.411V20.344C161.411 19.768 161.299 19.272 161.075 18.856C160.851 18.44 160.539 18.12 160.139 17.896C159.755 17.656 159.299 17.536 158.771 17.536C158.259 17.536 157.803 17.656 157.403 17.896C157.003 18.12 156.691 18.44 156.467 18.856C156.243 19.272 156.131 19.768 156.131 20.344V28H152.987ZM173.406 28.288C172.062 28.288 170.886 27.984 169.878 27.376C168.87 26.768 168.086 25.944 167.526 24.904C166.966 23.864 166.686 22.712 166.686 21.448C166.686 20.136 166.966 18.976 167.526 17.968C168.102 16.944 168.878 16.136 169.854 15.544C170.846 14.952 171.95 14.656 173.166 14.656C174.19 14.656 175.086 14.824 175.854 15.16C176.638 15.496 177.302 15.96 177.846 16.552C178.39 17.144 178.806 17.824 179.094 18.592C179.382 19.344 179.526 20.16 179.526 21.04C179.526 21.264 179.51 21.496 179.478 21.736C179.462 21.976 179.422 22.184 179.358 22.36H169.278V19.96H177.582L176.094 21.088C176.238 20.352 176.198 19.696 175.974 19.12C175.766 18.544 175.414 18.088 174.918 17.752C174.438 17.416 173.854 17.248 173.166 17.248C172.51 17.248 171.926 17.416 171.414 17.752C170.902 18.072 170.51 18.552 170.238 19.192C169.982 19.816 169.886 20.576 169.95 21.472C169.886 22.272 169.99 22.984 170.262 23.608C170.55 24.216 170.966 24.688 171.51 25.024C172.07 25.36 172.71 25.528 173.43 25.528C174.15 25.528 174.758 25.376 175.254 25.072C175.766 24.768 176.166 24.36 176.454 23.848L178.998 25.096C178.742 25.72 178.342 26.272 177.798 26.752C177.254 27.232 176.606 27.608 175.854 27.88C175.118 28.152 174.302 28.288 173.406 28.288ZM188.197 28.288C186.901 28.288 185.733 27.992 184.693 27.4C183.669 26.792 182.861 25.976 182.269 24.952C181.677 23.912 181.381 22.744 181.381 21.448C181.381 20.152 181.677 18.992 182.269 17.968C182.861 16.944 183.669 16.136 184.693 15.544C185.733 14.952 186.901 14.656 188.197 14.656C189.125 14.656 189.989 14.824 190.789 15.16C191.589 15.48 192.277 15.928 192.853 16.504C193.445 17.064 193.869 17.736 194.125 18.52L191.365 19.72C191.125 19.064 190.717 18.536 190.141 18.136C189.581 17.736 188.933 17.536 188.197 17.536C187.509 17.536 186.893 17.704 186.349 18.04C185.821 18.376 185.405 18.84 185.101 19.432C184.797 20.024 184.645 20.704 184.645 21.472C184.645 22.24 184.797 22.92 185.101 23.512C185.405 24.104 185.821 24.568 186.349 24.904C186.893 25.24 187.509 25.408 188.197 25.408C188.949 25.408 189.605 25.208 190.165 24.808C190.725 24.408 191.125 23.872 191.365 23.2L194.125 24.448C193.869 25.184 193.453 25.848 192.877 26.44C192.301 27.016 191.613 27.472 190.813 27.808C190.013 28.128 189.141 28.288 188.197 28.288ZM202.463 28.144C200.991 28.144 199.847 27.744 199.031 26.944C198.231 26.128 197.831 24.984 197.831 23.512V17.752H195.575V14.944H195.815C196.455 14.944 196.951 14.776 197.303 14.44C197.655 14.104 197.831 13.616 197.831 12.976V11.968H200.975V14.944H203.975V17.752H200.975V23.344C200.975 23.776 201.047 24.144 201.191 24.448C201.351 24.752 201.591 24.984 201.911 25.144C202.247 25.304 202.671 25.384 203.183 25.384C203.295 25.384 203.423 25.376 203.567 25.36C203.727 25.344 203.879 25.328 204.023 25.312V28C203.799 28.032 203.543 28.064 203.255 28.096C202.967 28.128 202.703 28.144 202.463 28.144Z" fill="white"/>
<defs>
<filter id="filter0_dd_13001_655" x="0" y="0" width="38" height="38" filterUnits="userSpaceOnUse" color-interpolation-filters="sRGB">
<feFlood flood-opacity="0" result="BackgroundImageFix"/>
<feColorMatrix in="SourceAlpha" type="matrix" values="0 0 0 0 0 0 0 0 0 0 0 0 0 0 0 0 0 0 127 0" result="hardAlpha"/>
<feOffset dy="1"/>
<feGaussianBlur stdDeviation="1"/>
<feColorMatrix type="matrix" values="0 0 0 0 0.0627451 0 0 0 0 0.0941176 0 0 0 0 0.156863 0 0 0 0.06 0"/>
<feBlend mode="normal" in2="BackgroundImageFix" result="effect1_dropShadow_13001_655"/>
<feColorMatrix in="SourceAlpha" type="matrix" values="0 0 0 0 0 0 0 0 0 0 0 0 0 0 0 0 0 0 127 0" result="hardAlpha"/>
<feOffset dy="1"/>
<feGaussianBlur stdDeviation="1.5"/>
<feColorMatrix type="matrix" values="0 0 0 0 0.0627451 0 0 0 0 0.0941176 0 0 0 0 0.156863 0 0 0 0.1 0"/>
<feBlend mode="normal" in2="effect1_dropShadow_13001_655" result="effect2_dropShadow_13001_655"/>
<feBlend mode="normal" in="SourceGraphic" in2="effect2_dropShadow_13001_655" result="shape"/>
</filter>
<linearGradient id="paint0_linear_13001_655" x1="19" y1="2" x2="19" y2="34" gradientUnits="userSpaceOnUse">
<stop stop-color="white"/>
<stop offset="1" stop-color="#D0D5DD"/>
</linearGradient>
<linearGradient id="paint1_linear_13001_655" x1="10.1989" y1="24.2137" x2="27.8347" y2="6.57791" gradientUnits="userSpaceOnUse">
<stop stop-color="#0076C1"/>
<stop offset="0.0737" stop-color="#0B82C6"/>
<stop offset="0.2766" stop-color="#269ED3"/>
<stop offset="0.4546" stop-color="#36AFDA"/>
<stop offset="0.587" stop-color="#3CB5DD"/>
</linearGradient>
<linearGradient id="paint2_linear_13001_655" x1="10.1388" y1="24.2537" x2="27.8274" y2="6.56509" gradientUnits="userSpaceOnUse">
<stop stop-color="#00A482"/>
<stop offset="1" stop-color="#79DD83"/>
</linearGradient>
<linearGradient id="paint3_linear_13001_655" x1="24.8608" y1="13.5073" x2="28.5288" y2="10.1132" gradientUnits="userSpaceOnUse">
<stop stop-color="#00A482"/>
<stop offset="1" stop-color="#79DD83"/>
</linearGradient>
</defs>
</svg>
